<svg width="24" height="24" viewBox="0 0 24 24" fill="none" xmlns="http://www.w3.org/2000/svg">
<path d="M3.69143 6.292C5.09443 4.771 7.21743 4 10.0004 4H11.0004V6.819L10.1964 6.98C8.82643 7.254 7.87343 7.793 7.36343 8.584C7.09732 9.01013 6.9464 9.49804 6.92543 10H10.0004C10.2656 10 10.52 10.1054 10.7075 10.2929C10.8951 10.4804 11.0004 10.7348 11.0004 11V18C11.0004 19.103 10.1034 20 9.00043 20H3.00043C2.73521 20 2.48086 19.8946 2.29332 19.7071C2.10579 19.5196 2.00043 19.2652 2.00043 19V14L2.00343 11.081C1.99443 10.97 1.80443 8.34 3.69143 6.292ZM20.0004 20H14.0004C13.7352 20 13.4809 19.8946 13.2933 19.7071C13.1058 19.5196 13.0004 19.2652 13.0004 19V14L13.0034 11.081C12.9944 10.97 12.8044 8.34 14.6914 6.292C16.0944 4.771 18.2174 4 21.0004 4H22.0004V6.819L21.1964 6.98C19.8264 7.254 18.8734 7.793 18.3634 8.584C18.0973 9.01013 17.9464 9.49804 17.9254 10H21.0004C21.2656 10 21.52 10.1054 21.7075 10.2929C21.8951 10.4804 22.0004 10.7348 22.0004 11V18C22.0004 19.103 21.1034 20 20.0004 20Z" fill="#111111"/>
</svg>
