<svg width="24" height="24" viewBox="0 0 24 24" fill="none" xmlns="http://www.w3.org/2000/svg">
<g clip-path="url(#clip0_313_7)">
<path d="M2.02488 23.2293L0.864258 22.0668L17.9699 4.96118L19.1305 6.12181L2.02488 23.2293Z" fill="url(#paint0_linear_313_7)"/>
<path d="M18.7573 5.33627C18.3355 4.91439 17.9717 4.96127 17.9717 4.96127L14.9492 7.98377C15.1273 7.94439 15.4405 8.09627 15.7198 8.37377C15.9973 8.65127 16.1492 8.96439 16.1098 9.14439L19.1323 6.12189C19.1305 6.12189 19.1792 5.76002 18.7573 5.33627Z" fill="url(#paint1_linear_313_7)"/>
<path d="M4.70617 19.3875C4.2843 18.9657 3.92055 19.0125 3.92055 19.0125L0.888672 22.0425C1.0668 22.0032 1.3893 22.1475 1.66867 22.425C1.94617 22.7025 2.09055 23.0269 2.05117 23.205L5.08117 20.1732C5.08117 20.1732 5.12805 19.8094 4.70617 19.3875Z" fill="url(#paint2_linear_313_7)"/>
<path d="M2.04316 23.2118C2.18521 23.0697 2.04037 22.6946 1.71964 22.3739C1.39892 22.0532 1.02377 21.9083 0.881717 22.0504C0.739667 22.1925 0.884509 22.5676 1.20523 22.8883C1.52596 23.209 1.90111 23.3539 2.04316 23.2118Z" fill="#9E9E9E"/>
<path opacity="0.85" d="M17.966 4.96494L5.22728 17.7056C5.08478 17.8481 5.22916 18.2231 5.54978 18.5418C5.87041 18.8624 6.24541 19.0068 6.38603 18.8643L19.1267 6.12369C19.1267 6.12369 19.2054 5.77119 18.7554 5.33432C18.3054 4.89744 17.966 4.96494 17.966 4.96494Z" fill="url(#paint3_linear_313_7)"/>
<path opacity="0.22" d="M13.6106 9.32066L0.871813 22.0613C0.729313 22.2038 0.873687 22.5788 1.19431 22.8975C1.51494 23.2182 1.88994 23.3625 2.03056 23.22L14.7731 10.4813C14.7731 10.4813 14.8518 10.1288 14.4018 9.69191C13.9499 9.25691 13.6106 9.32066 13.6106 9.32066Z" fill="url(#paint4_linear_313_7)"/>
<path d="M12.8194 3.52864L13.9407 2.41114C14.0026 2.34926 14.1094 2.39989 14.1001 2.48801L13.9557 3.79864C13.9501 3.84926 13.9857 3.89614 14.0382 3.90176L15.6432 4.09301C15.7369 4.10426 15.7576 4.23176 15.6694 4.27114L13.9969 5.01926C13.9726 5.03051 13.9538 5.05301 13.9463 5.07926L13.4626 6.73864C13.4401 6.81926 13.3313 6.83051 13.2919 6.75739L12.5438 5.39801C12.535 5.38219 12.5218 5.36921 12.5059 5.36058C12.4899 5.35195 12.4719 5.34803 12.4538 5.34926L11.0176 5.46551C10.9984 5.46713 10.9793 5.46281 10.9627 5.45315C10.9462 5.44349 10.933 5.42895 10.925 5.41152C10.917 5.39409 10.9146 5.37461 10.918 5.35575C10.9215 5.33689 10.9307 5.31957 10.9444 5.30614L11.8969 4.37801C11.9251 4.35176 11.9326 4.30864 11.9176 4.27301L11.4132 3.11989C11.3794 3.04114 11.4601 2.96051 11.5388 2.99801L12.7182 3.54926C12.7501 3.56426 12.7913 3.55676 12.8194 3.52864Z" fill="url(#paint5_radial_313_7)"/>
<path d="M16.892 11.8613L17.7807 12.272C17.8032 12.2832 17.8295 12.2795 17.8482 12.2645L18.7388 11.5913C18.7857 11.5557 18.8495 11.5932 18.8457 11.6495L18.7613 12.7557C18.7595 12.7801 18.7707 12.8045 18.7932 12.8176L19.6426 13.3426C19.6932 13.3745 19.6801 13.4532 19.6201 13.4645L18.5551 13.6838C18.5288 13.6895 18.5082 13.7082 18.5026 13.7345L18.2757 14.7376C18.2626 14.7976 18.182 14.8088 18.152 14.7545L17.6795 13.8901C17.6737 13.8792 17.665 13.8701 17.6545 13.8639C17.6439 13.8576 17.6318 13.8543 17.6195 13.8545L16.502 13.8901C16.4438 13.892 16.412 13.8245 16.4476 13.7795L17.1676 12.9188C17.1845 12.9001 17.1882 12.8738 17.1788 12.8495L16.8001 11.9457C16.7795 11.8913 16.8376 11.8351 16.892 11.8613Z" fill="url(#paint6_radial_313_7)"/>
<path d="M20.5594 2.18433L22.1401 1.48308C22.2188 1.44745 22.2882 1.5262 22.2469 1.6012L21.4651 3.0412C21.4463 3.07495 21.4501 3.1162 21.4744 3.14245L23.1676 4.78495C23.2182 4.83745 23.1751 4.9312 23.0982 4.93495L21.0207 4.56933C20.9888 4.5712 20.9588 4.58995 20.9419 4.61995L19.8488 6.62058C19.8076 6.6937 19.7026 6.6862 19.6857 6.60933L19.4719 4.6612C19.4678 4.64453 19.4584 4.6296 19.4453 4.6185C19.4322 4.6074 19.4159 4.60069 19.3988 4.59933L17.6832 4.31995C17.6101 4.31433 17.5819 4.2262 17.6382 4.17183L19.0726 3.06933C19.0932 3.0487 19.1044 3.02058 19.1007 2.99245L18.8438 0.821201C18.8363 0.738701 18.9394 0.684326 18.9976 0.740576L20.4638 2.16933C20.4882 2.19183 20.5257 2.19745 20.5594 2.18433Z" fill="url(#paint7_radial_313_7)"/>
<path d="M18.0542 5.03806C17.3529 5.21806 16.6423 5.37369 15.9167 5.43369C15.191 5.49931 14.4542 5.44681 13.7379 5.31744C13.0217 5.18431 12.3185 5.01744 11.6098 4.88619C10.901 4.75494 10.1885 4.64994 9.47229 4.56744C9.11416 4.52619 8.75416 4.49619 8.39604 4.46056C8.04541 4.42681 7.69854 4.43619 7.36854 4.51306C7.04416 4.59556 6.74229 4.75119 6.54729 5.00619C6.35041 5.25744 6.25666 5.58369 6.25666 5.91931C6.25291 6.59619 6.52479 7.27119 6.86979 7.88056C7.21666 8.49369 7.67229 9.05056 8.12791 9.60744C9.03541 10.7249 10.016 11.7881 10.9892 12.8587C11.4767 13.3949 11.9642 13.9293 12.4442 14.4731C12.9279 15.0131 13.3948 15.5699 13.841 16.1437C14.2892 16.7156 14.7148 17.3137 15.0617 17.9624C15.1479 18.1199 15.2435 18.2943 15.2717 18.5043C15.281 18.6112 15.2698 18.7293 15.2098 18.8343C15.1498 18.9393 15.0504 19.0049 14.9548 19.0481C14.7579 19.1268 14.5629 19.1324 14.3754 19.1231C14.1879 19.1118 14.0042 19.0818 13.8242 19.0406C13.1079 18.8662 12.4385 18.5681 11.7935 18.2324C11.471 18.0637 11.156 17.8837 10.8467 17.6943C10.5392 17.5031 10.2373 17.3006 9.94104 17.0943C10.556 17.4768 11.186 17.8331 11.8367 18.1424C12.4873 18.4499 13.1642 18.7181 13.8598 18.8587C14.0342 18.8906 14.2085 18.9168 14.381 18.9224C14.5535 18.9281 14.7279 18.9131 14.8667 18.8531C14.9342 18.8212 14.9904 18.7799 15.0185 18.7237C15.0467 18.6693 15.0542 18.5999 15.0467 18.5268C15.0242 18.3768 14.9435 18.2268 14.8517 18.0712C14.501 17.4524 14.0717 16.8749 13.6142 16.3199C11.7842 14.0999 9.69916 12.0824 7.83916 9.84369C7.38354 9.27931 6.92229 8.70556 6.56041 8.05494C6.20416 7.40994 5.90979 6.69369 5.91916 5.91181C5.92291 5.52556 6.03541 5.11869 6.29041 4.79994C6.54354 4.47556 6.92229 4.28806 7.29541 4.19806C7.67229 4.11556 8.05854 4.10619 8.42791 4.14931C8.78791 4.19431 9.14979 4.23181 9.50979 4.28244C10.2298 4.38369 10.946 4.50744 11.6567 4.65556C12.3673 4.80556 13.0704 4.98556 13.7735 5.13744C14.4748 5.29119 15.191 5.37181 15.911 5.33431C16.6292 5.30056 17.3435 5.17869 18.0542 5.03806Z" fill="#FDD835"/>
<path d="M12.7085 6.68256C10.5991 7.17381 8.17852 5.74506 5.94352 5.99631C5.09039 6.10881 4.73977 7.12881 5.55914 8.74506C7.16789 11.5144 9.51539 13.1494 10.3816 14.1638C9.21727 13.5113 6.82477 11.7919 5.16164 10.1738C2.65852 7.77381 3.12164 4.77381 5.44289 4.78319C6.22102 4.70819 7.72664 5.08319 8.35664 5.31381C8.97727 5.56319 11.0904 6.48381 12.7085 6.68256Z" fill="url(#paint8_radial_313_7)"/>
</g>
<defs>
<linearGradient id="paint0_linear_313_7" x1="9.41687" y1="13.5142" x2="10.578" y2="14.6754" gradientUnits="userSpaceOnUse">
<stop offset="0.595" stop-color="#616161"/>
<stop offset="0.775" stop-color="#565656"/>
<stop offset="1" stop-color="#424242"/>
</linearGradient>
<linearGradient id="paint1_linear_313_7" x1="16.6648" y1="6.47214" x2="17.937" y2="7.74452" gradientUnits="userSpaceOnUse">
<stop offset="0.262" stop-color="#F5F5F5"/>
<stop offset="0.466" stop-color="#EAEAEA"/>
<stop offset="0.822" stop-color="#CDCDCD"/>
<stop offset="0.989" stop-color="#BDBDBD"/>
</linearGradient>
<linearGradient id="paint2_linear_313_7" x1="2.60861" y1="20.5268" x2="3.88398" y2="21.802" gradientUnits="userSpaceOnUse">
<stop offset="0.262" stop-color="#F5F5F5"/>
<stop offset="0.466" stop-color="#EAEAEA"/>
<stop offset="0.822" stop-color="#CDCDCD"/>
<stop offset="0.989" stop-color="#BDBDBD"/>
</linearGradient>
<linearGradient id="paint3_linear_313_7" x1="12.8222" y1="11.27" x2="19.3093" y2="4.78288" gradientUnits="userSpaceOnUse">
<stop stop-color="#FADA80" stop-opacity="0"/>
<stop offset="1" stop-color="#FADA80"/>
</linearGradient>
<linearGradient id="paint4_linear_313_7" x1="-0.470688" y1="24.5631" x2="4.01881" y2="20.0736" gradientUnits="userSpaceOnUse">
<stop stop-color="#1A237E"/>
<stop offset="0.186" stop-color="#1D2A87" stop-opacity="0.814"/>
<stop offset="0.49" stop-color="#243DA0" stop-opacity="0.51"/>
<stop offset="0.873" stop-color="#2F5CC7" stop-opacity="0.127"/>
<stop offset="1" stop-color="#3367D6" stop-opacity="0"/>
</linearGradient>
<radialGradient id="paint5_radial_313_7" cx="0" cy="0" r="1" gradientUnits="userSpaceOnUse" gradientTransform="translate(14.2345 4.32647) rotate(2.144) scale(2.772)">
<stop stop-color="#FFEB3B"/>
<stop offset="1" stop-color="#FBC02D"/>
</radialGradient>
<radialGradient id="paint6_radial_313_7" cx="0" cy="0" r="1" gradientUnits="userSpaceOnUse" gradientTransform="translate(18.425 12.099) rotate(-20.089) scale(2.22806)">
<stop stop-color="#FFEB3B"/>
<stop offset="1" stop-color="#FBC02D"/>
</radialGradient>
<radialGradient id="paint7_radial_313_7" cx="0" cy="0" r="1" gradientUnits="userSpaceOnUse" gradientTransform="translate(20.2551 3.56962) rotate(104.711) scale(3.00528 3.24871)">
<stop offset="0.325" stop-color="#FFEB3B"/>
<stop offset="1" stop-color="#FBC02D"/>
</radialGradient>
<radialGradient id="paint8_radial_313_7" cx="0" cy="0" r="1" gradientUnits="userSpaceOnUse" gradientTransform="translate(17.3928 13.1416) rotate(30.6965) scale(17.5745 10.5324)">
<stop stop-color="#FFEE58" stop-opacity="0"/>
<stop offset="1" stop-color="#FDD835"/>
</radialGradient>
<clipPath id="clip0_313_7">
<rect width="24" height="24" fill="white"/>
</clipPath>
</defs>
</svg>
