<svg width="20" height="20" viewBox="0 0 20 20" fill="none" xmlns="http://www.w3.org/2000/svg">
<g clip-path="url(#clip0_313_19)">
<g opacity="0.2">
<path d="M10.5903 5.93905C14.3903 6.95705 16.6953 10.711 15.7253 14.334C14.6313 18.414 9.42732 21.678 6.84332 18.894C6.02032 18.008 5.80832 17.034 5.95332 15.734C5.97832 15.509 5.99932 15.362 6.06632 14.94C6.22832 13.908 6.22632 13.5 6.01232 13.152C5.80532 12.816 5.43432 12.729 4.33432 12.716L4.22632 12.714C2.67832 12.692 1.92632 12.434 1.54432 11.351C0.274321 7.76205 6.32332 4.79505 10.5903 5.93905Z" fill="#616161"/>
<path fill-rule="evenodd" clip-rule="evenodd" d="M13.8435 4.42998C13.3315 4.40998 12.8615 4.09198 12.5375 3.48398C11.9805 2.43598 11.8585 0.916982 12.6485 0.496982C13.4385 0.0769825 14.6285 1.02698 15.1865 2.07598C15.4865 2.64098 15.5085 3.17198 15.2935 3.59398C15.4886 3.69206 15.6461 3.85159 15.7415 4.04798L19.8345 12.448C19.9029 12.599 19.9111 12.7703 19.8577 12.9272C19.8042 13.0841 19.693 13.2147 19.5467 13.2925C19.4003 13.3703 19.2298 13.3895 19.0699 13.3461C18.9099 13.3027 18.7725 13.2001 18.6855 13.059L13.9775 4.98898C13.8788 4.81991 13.8322 4.62545 13.8435 4.42998Z" fill="#7FE8FF"/>
</g>
<path fill-rule="evenodd" clip-rule="evenodd" d="M14.7251 13.3341C15.6951 9.71105 13.3891 5.95705 9.59009 4.93905C5.32309 3.79505 -0.724906 6.76205 0.544094 10.3501C0.927094 11.4341 1.67809 11.6911 3.22609 11.7131L3.33409 11.7151C4.43409 11.7281 4.80509 11.8151 5.01209 12.1511C5.22609 12.4991 5.22809 12.9071 5.06609 13.9391C4.99909 14.3611 4.97809 14.5081 4.95309 14.7331C4.80809 16.0331 5.02009 17.0071 5.84309 17.8931C8.42709 20.6771 13.6311 17.4141 14.7251 13.3341ZM1.48609 10.0171C0.578094 7.44705 5.70309 4.93305 9.33109 5.90505C12.6081 6.78305 14.5831 9.99805 13.7591 13.0751C12.8351 16.5211 8.47209 19.2571 6.57609 17.2151C5.98209 16.5751 5.83109 15.8821 5.94609 14.8451C5.97009 14.6401 5.99009 14.5011 6.05409 14.0951C6.25409 12.8201 6.25109 12.2591 5.86409 11.6281C5.39909 10.8721 4.80509 10.7341 3.34709 10.7161L3.24009 10.7141C2.08109 10.6981 1.67809 10.5601 1.48609 10.0171Z" fill="#BDBDBD"/>
<path d="M4.75 9.49986C4.41848 9.49986 4.10054 9.36817 3.86612 9.13375C3.6317 8.89933 3.5 8.58138 3.5 8.24986C3.5 7.91834 3.6317 7.6004 3.86612 7.36598C4.10054 7.13156 4.41848 6.99986 4.75 6.99986C5.08152 6.99986 5.39946 7.13156 5.63388 7.36598C5.8683 7.6004 6 7.91834 6 8.24986C6 8.58138 5.8683 8.89933 5.63388 9.13375C5.39946 9.36817 5.08152 9.49986 4.75 9.49986ZM8.75 9.49986C8.41848 9.49986 8.10054 9.36817 7.86612 9.13375C7.6317 8.89933 7.5 8.58138 7.5 8.24986C7.5 7.91834 7.6317 7.6004 7.86612 7.36598C8.10054 7.13156 8.41848 6.99986 8.75 6.99986C9.08152 6.99986 9.39946 7.13156 9.63388 7.36598C9.8683 7.6004 10 7.91834 10 8.24986C10 8.58138 9.8683 8.89933 9.63388 9.13375C9.39946 9.36817 9.08152 9.49986 8.75 9.49986ZM11.25 12.4999C10.9185 12.4999 10.6005 12.3682 10.3661 12.1337C10.1317 11.8993 10 11.5814 10 11.2499C10 10.9183 10.1317 10.6004 10.3661 10.366C10.6005 10.1316 10.9185 9.99986 11.25 9.99986C11.5815 9.99986 11.8995 10.1316 12.1339 10.366C12.3683 10.6004 12.5 10.9183 12.5 11.2499C12.5 11.5814 12.3683 11.8993 12.1339 12.1337C11.8995 12.3682 11.5815 12.4999 11.25 12.4999ZM9.75 15.9999C9.41848 15.9999 9.10054 15.8682 8.86612 15.6337C8.6317 15.3993 8.5 15.0814 8.5 14.7499C8.5 14.4183 8.6317 14.1004 8.86612 13.866C9.10054 13.6316 9.41848 13.4999 9.75 13.4999C10.0815 13.4999 10.3995 13.6316 10.6339 13.866C10.8683 14.1004 11 14.4183 11 14.7499C11 15.0814 10.8683 15.3993 10.6339 15.6337C10.3995 15.8682 10.0815 15.9999 9.75 15.9999ZM13.37 3.60486C13.4886 3.54134 13.6187 3.50239 13.7527 3.49034C13.8867 3.4783 14.0217 3.49341 14.1497 3.53477C14.2777 3.57613 14.3961 3.64289 14.4977 3.73105C14.5993 3.81921 14.682 3.92697 14.741 4.04786L18.834 12.4479C18.9023 12.5989 18.9106 12.7702 18.8571 12.9271C18.8037 13.0839 18.6925 13.2146 18.5461 13.2924C18.3998 13.3702 18.2293 13.3894 18.0694 13.346C17.9094 13.3026 17.772 13.1999 17.685 13.0589L12.977 4.98886C12.9093 4.87277 12.8658 4.74421 12.849 4.61089C12.8322 4.47756 12.8425 4.34222 12.8793 4.21298C12.9161 4.08373 12.9786 3.96325 13.0631 3.85876C13.1476 3.75426 13.2523 3.6679 13.371 3.60486" fill="#FF7605"/>
<path fill-rule="evenodd" clip-rule="evenodd" d="M11.5379 3.48406C12.0239 4.39906 12.8429 4.65506 13.6349 4.23406C14.4259 3.81406 14.6729 2.99106 14.1859 2.07606C13.6299 1.02806 12.4379 0.0780555 11.6479 0.497056C10.8579 0.917056 10.9799 2.43606 11.5379 3.48406ZM12.4199 3.01406C12.2428 2.65849 12.1343 2.27278 12.0999 1.87706C12.085 1.71162 12.0911 1.54497 12.1179 1.38106L12.1359 1.39006C12.1859 1.41406 12.3409 1.48606 12.5389 1.64406C12.8409 1.88506 13.1409 2.24006 13.3029 2.54506C13.5319 2.97506 13.4669 3.19106 13.1649 3.35206C12.8649 3.51206 12.6489 3.44406 12.4199 3.01506" fill="#3FC41E"/>
</g>
<defs>
<clipPath id="clip0_313_19">
<rect width="20" height="20" fill="white"/>
</clipPath>
</defs>
</svg>
