<svg width="24" height="24" viewBox="0 0 24 24" fill="none" xmlns="http://www.w3.org/2000/svg">
<g clip-path="url(#clip0_313_27)">
<path opacity="0.6" d="M15.0694 2.37573C11.3476 2.37573 8.54443 5.17886 8.54443 8.90073C8.54443 12.6226 11.5726 15.6526 15.2963 15.6526C19.0201 15.6526 21.8213 12.8495 21.8213 9.12761C21.8213 5.40573 18.7913 2.37573 15.0694 2.37573Z" fill="#81D4FA"/>
<path d="M15.0692 2.37559C18.7911 2.37559 21.8211 5.40372 21.8211 9.12747C21.8211 12.8512 19.0179 15.6525 15.2961 15.6525C11.5742 15.6525 8.54231 12.6243 8.54231 8.90059C8.54231 5.17684 11.3454 2.37559 15.0692 2.37559ZM9.89043 3.72184C7.45668 6.40122 6.21543 10.7831 9.67106 14.2387C13.4023 17.97 18.3917 16.4212 21.0579 13.6987C22.4998 12.2268 24.3111 6.83434 20.6211 3.14622C16.9311 -0.541906 11.5067 1.94247 9.89043 3.72184Z" fill="#616161"/>
<path d="M5.29102 17.0362L6.85289 18.6075L10.5316 14.895C10.5316 14.895 10.8429 14.2968 10.2279 13.6818C9.61289 13.0668 8.96977 13.3237 8.96977 13.3237L5.29102 17.0362Z" fill="#BDBDBD"/>
<path d="M7.40644 14.43C7.61831 14.2613 8.35331 13.8675 9.16144 14.67C9.96769 15.4725 9.63957 16.1063 9.48019 16.3406C9.48019 16.3406 3.75581 22.6913 3.49519 22.9538C3.11081 23.3381 2.32144 23.01 1.59019 22.2788C0.85894 21.5475 0.50644 20.8406 0.91894 20.4281C1.25457 20.0925 7.19456 14.5988 7.40644 14.43Z" fill="#616161"/>
<path d="M15.765 1.61994C19.4869 1.61994 22.515 4.64807 22.515 8.36994C22.515 12.0918 19.4869 15.1199 15.765 15.1199C12.0432 15.1199 9.01504 12.0918 9.01504 8.36994C9.01504 4.64807 12.045 1.61994 15.765 1.61994ZM15.765 0.877441C11.6288 0.877441 8.27441 4.23182 8.27441 8.36807C8.27441 12.5043 11.6288 15.8587 15.765 15.8587C19.9013 15.8587 23.2557 12.5043 23.2557 8.36807C23.2557 4.23182 19.9032 0.877441 15.765 0.877441Z" fill="#BDBDBD"/>
<path d="M3.28711 23.0349C3.54778 22.7743 3.21001 22.0139 2.53269 21.3366C1.85536 20.6593 1.09496 20.3215 0.83429 20.5822C0.57362 20.8429 0.911387 21.6033 1.58871 22.2806C2.26604 22.9579 3.02644 23.2956 3.28711 23.0349Z" fill="#424242"/>
<path d="M13.5974 3.17429C11.9849 3.90554 11.0118 5.04179 10.4118 6.49679C10.1905 7.03304 10.0368 7.63116 10.1999 8.18804C10.363 8.74304 10.9405 9.20804 11.5011 9.06929C11.8724 8.97742 12.1405 8.66241 12.4124 8.39241C12.8314 7.97924 13.3169 7.6395 13.8486 7.38742C14.5124 7.07242 15.2399 6.90179 15.8924 6.56054C16.543 6.21929 17.1411 5.64554 17.2274 4.91617C17.3118 4.20179 16.8599 3.48929 16.2261 3.14617C15.5924 2.80304 14.5274 2.75242 13.5974 3.17429Z" fill="url(#paint0_linear_313_27)"/>
<path opacity="0.59" d="M9.79503 4.72876C9.88128 4.72688 9.96003 4.68563 10.0069 4.61438C10.26 4.24313 10.8488 3.24563 12.45 2.36251C13.3838 1.84688 14.1675 1.64251 14.4469 1.58438C15.2382 1.41938 14.9644 1.00876 14.4507 1.07813C13.8675 1.15688 11.3044 1.72126 9.57191 4.31063C9.45191 4.49251 9.57753 4.73438 9.79503 4.72876ZM21.9488 11.5669C21.7069 11.5969 21.4838 12.0169 21.4388 12.09C21.2044 12.4725 20.745 13.4213 19.1475 14.3119C18.4032 14.7263 17.6363 15.03 17.2538 15.135C16.6294 15.3075 16.7644 15.735 17.2725 15.6413C17.8519 15.5344 20.3869 14.8538 21.9975 12.1875C22.11 12 22.2713 11.5275 21.9488 11.5669Z" fill="white"/>
<path d="M16.1288 14.2932C15.2794 14.267 15.1144 13.8732 15.2888 13.5563C15.4276 13.3051 15.752 13.2545 16.0388 13.232C17.567 13.112 19.0388 12.1838 20.1751 11.1938C19.9744 12.2232 19.577 12.7595 18.9526 13.2601C18.3413 13.7476 17.4301 14.3345 16.1288 14.2932Z" fill="url(#paint1_linear_313_27)"/>
</g>
<defs>
<linearGradient id="paint0_linear_313_27" x1="12.9207" y1="1.77483" x2="13.9098" y2="7.54831" gradientUnits="userSpaceOnUse">
<stop offset="0.285" stop-color="white"/>
<stop offset="1" stop-color="white" stop-opacity="0"/>
</linearGradient>
<linearGradient id="paint1_linear_313_27" x1="15.8311" y1="18.3681" x2="18.2773" y2="10.7021" gradientUnits="userSpaceOnUse">
<stop offset="0.285" stop-color="white"/>
<stop offset="1" stop-color="white" stop-opacity="0"/>
</linearGradient>
<clipPath id="clip0_313_27">
<rect width="24" height="24" fill="white"/>
</clipPath>
</defs>
</svg>
