<svg width="24" height="24" viewBox="0 0 24 24" fill="none" xmlns="http://www.w3.org/2000/svg">
<path d="M19.8749 4.64807H4.15299C3.79299 4.64807 3.50049 4.94057 3.50049 5.30057V16.0987C3.50049 16.4587 3.79299 16.7512 4.15299 16.7512H19.8749C20.2349 16.7512 20.5274 16.4587 20.5274 16.0987V5.30057C20.5274 4.94057 20.2367 4.64807 19.8749 4.64807Z" fill="#B7D5E5"/>
<path d="M19.6408 15.5999H4.3877L4.5677 5.79932H19.4608L19.6408 15.5999Z" fill="url(#paint0_radial_314_62)"/>
<path d="M22.7041 23.2162H1.42289C1.34227 23.2162 1.26727 23.2106 1.19789 23.1993C0.657892 23.1168 0.408517 22.4156 0.729142 21.9356L0.802267 21.825H23.2254L23.3004 21.9375C23.6491 22.4587 23.3229 23.205 22.7304 23.2143C22.7229 23.2162 22.7135 23.2162 22.7041 23.2162Z" fill="#2F7889"/>
<path d="M20.0323 16.9519H3.86229C3.62417 16.9519 3.38604 17.0963 3.25292 17.325L0.627917 22.1025C0.517292 22.2675 0.626042 22.5 0.813542 22.5H23.2123C23.3998 22.5 23.5085 22.2675 23.3979 22.1025L20.6398 17.2969C20.5085 17.0944 20.2704 16.9519 20.0323 16.9519Z" fill="#EEEEEE"/>
<path d="M16.1924 21.6599H7.8374L8.37178 20.1637H15.6974L16.1924 21.6599Z" fill="#B7D5E5"/>
<path opacity="0.57" d="M13.6295 17.7825L13.5789 17.37H12.9339L12.9582 17.7825H13.6295ZM12.5889 17.7825L12.5626 17.37H11.9157V17.7825H12.5889ZM17.552 17.7825L17.4001 17.37H16.7889L16.9164 17.7825H17.552ZM16.5676 17.7825L16.4401 17.37H15.8176L15.9189 17.7825H16.5676ZM15.5964 17.7825L15.4951 17.37H14.8632L14.9401 17.7825H15.5964ZM19.1457 17.7825L18.9676 17.37H17.7095L17.8632 17.7825H19.1457ZM14.552 17.7825L14.4751 17.37H13.8357L13.8882 17.7825H14.552ZM6.33012 17.7825L6.45762 17.37H5.84637L5.69449 17.7825H6.33012ZM9.47074 17.7825L9.52137 17.37H8.88199L8.80699 17.7825H9.47074ZM7.37824 17.7825L7.47949 17.37H6.85699L6.73137 17.7825H7.37824ZM5.28199 17.7825L5.43387 17.37H4.83762L4.65949 17.7825H5.28199ZM8.42449 17.7825L8.50137 17.37H7.86949L7.76824 17.7825H8.42449ZM10.5151 17.7825L10.5414 17.37H9.89637L9.84574 17.7825H10.5151ZM11.5595 17.7825V17.37H10.9126L10.8864 17.7825H11.5595ZM15.7089 19.4494H8.31762L8.17699 19.8619H15.8795L15.7089 19.4494ZM19.1532 19.8619L18.9264 19.4494H20.1526L20.3307 19.8619H19.1532ZM16.2657 19.8619L16.1101 19.4494H17.2895L17.4695 19.8619H16.2657ZM17.8857 19.8619L17.7057 19.4494H18.5139L18.7201 19.8619H17.8857ZM4.81324 19.8619L5.04012 19.4494H3.81387L3.63574 19.8619H4.81324ZM7.70074 19.8619L7.85637 19.4494H6.67699L6.49699 19.8619H7.70074ZM6.07887 19.8619L6.26074 19.4494H5.45262L5.24449 19.8619H6.07887ZM5.57074 18.4706L5.72449 18.06H4.47387L4.29574 18.4706H5.57074ZM18.3657 18.4706L18.2139 18.06H19.4626L19.6407 18.4706H18.3657ZM18.047 18.4706L17.867 18.06H17.1451L17.2989 18.4706H18.047ZM16.1682 18.4706L16.0464 18.06H16.7682L16.9145 18.4706H16.1682ZM15.0357 18.4706L14.9476 18.06H15.6695L15.782 18.4706H15.0357ZM13.9032 18.4706L13.8507 18.06H14.5707L14.6514 18.4706H13.9032ZM12.7726 18.4706L12.752 18.06H13.4739L13.5189 18.4706H12.7726ZM11.6401 18.4706L11.6532 18.06H12.3751L12.3864 18.4706H11.6401ZM10.5076 18.4706L10.5545 18.06H11.2764L11.2557 18.4706H10.5076ZM9.37699 18.4706L9.45574 18.06H10.1776L10.1232 18.4706H9.37699ZM8.24449 18.4706L8.35699 18.06H9.07887L8.99074 18.4706H8.24449ZM7.11199 18.4706L7.25824 18.06H7.98012L7.86012 18.4706H7.11199ZM5.98137 18.4706L6.15949 18.06H6.88137L6.72762 18.4706H5.98137ZM5.56887 19.1662L5.72074 18.7537H4.08012L3.90199 19.1662H5.56887ZM17.9757 19.1662L17.8314 18.7537H17.0495L17.1695 19.1662H17.9757ZM15.9245 19.1662L15.8345 18.7537H16.6145L16.7307 19.1662H15.9245ZM14.6776 19.1662L14.6176 18.7537H15.3995L15.4839 19.1662H14.6776ZM13.4326 19.1662L13.4007 18.7537H14.1826L14.2389 19.1662H13.4326ZM12.1876 19.1662L12.1857 18.7537H12.9657L12.9939 19.1662H12.1876ZM10.9426 19.1662L10.9689 18.7537H11.7507L11.7489 19.1662H10.9426ZM9.69574 19.1662L9.75199 18.7537H10.5339L10.502 19.1662H9.69574ZM8.45074 19.1662L8.53699 18.7537H9.31699L9.25699 19.1662H8.45074ZM7.20574 19.1662L7.32012 18.7537H8.10199L8.01199 19.1662H7.20574ZM5.95887 19.1662L6.10324 18.7537H6.88512L6.76699 19.1662H5.95887ZM18.2757 19.1662L18.122 18.7537H19.7626L19.9407 19.1662H18.2757Z" fill="#69A1BA"/>
<path d="M23.3871 22.1025L20.6983 17.325C20.5652 17.1244 20.3271 16.98 20.089 16.98C20.089 16.98 20.3177 17.1862 20.3871 17.2856L22.7477 21.7087C22.8527 21.9 22.714 22.1325 22.4965 22.1325H1.49272C1.2771 22.1325 1.13835 21.9019 1.2396 21.7125L3.48022 17.3662C3.54585 17.2537 3.83272 16.9931 3.83272 16.9931H3.74835C3.51022 16.9931 3.2721 17.1375 3.13897 17.3662L0.615222 22.1025C0.504597 22.2675 0.613347 22.5 0.800847 22.5H23.1996C23.389 22.5 23.4977 22.2675 23.3871 22.1025Z" fill="#B7D5E5"/>
<path d="M4.86914 5.25378H7.34602" stroke="#EEEEEE" stroke-width="2.936" stroke-miterlimit="10" stroke-linecap="round"/>
<path d="M20.5069 5.64564C20.5069 5.45064 20.3175 5.43564 20.3175 5.66627V16.1288C20.3175 16.38 20.1131 16.5844 19.8619 16.5844H4.14002C3.88877 16.5844 3.68439 16.38 3.68439 16.1288V5.66627C3.68439 5.43564 3.49502 5.45064 3.49502 5.64564L3.31689 16.1288C3.31689 16.5825 3.54939 16.9519 4.14002 16.9519H19.8619C20.3738 16.9519 20.685 16.5825 20.685 16.1288L20.5069 5.64564Z" fill="#75A7BC"/>
<defs>
<radialGradient id="paint0_radial_314_62" cx="0" cy="0" r="1" gradientUnits="userSpaceOnUse" gradientTransform="translate(9.0767 0.737178) scale(14.1497 15.3425)">
<stop stop-color="#2F7889"/>
<stop offset="1" stop-color="#424242"/>
</radialGradient>
</defs>
</svg>
