<svg width="24" height="24" viewBox="0 0 24 24" fill="none" xmlns="http://www.w3.org/2000/svg">
<path d="M3.42857 1.5C1.5375 1.5 0 2.84531 0 4.5V19.5C0 21.1547 1.5375 22.5 3.42857 22.5H20.5714C22.4625 22.5 24 21.1547 24 19.5V4.5C24 2.84531 22.4625 1.5 20.5714 1.5H3.42857ZM19.3446 5.4375L13.7839 10.9969L20.325 18.5625H15.2036L11.1964 13.9734L6.60536 18.5625H4.06071L10.0071 12.6141L3.73393 5.4375H8.98393L12.6107 9.63281L16.8 5.4375H19.3446ZM17.3196 17.2313L8.21786 6.69844H6.70179L15.9054 17.2313H17.3143H17.3196Z" fill="#111111"/>
</svg>
